# MagicaVoxel @ Ephtracy

# group
o 

# material
mtllib road_s.mtl
usemtl palette

# normals
vn -1 0 0
vn 1 0 0
vn 0 0 1
vn 0 0 -1
vn 0 -1 0
vn 0 1 0

# texcoords
vt 0.962891 0.5
vt 0.982422 0.5
vt 0.990234 0.5

# verts
v 0 2 0
v 0 2 -4
v 0 2.1 0
v 0 2.1 -4
v 0 2.2 0
v 0 2.2 -4
v 3 2.1 0
v 3 2.1 -4
v 3 2.2 0
v 3 2.2 -4
v 1 2.1 0
v 1 2.1 -4
v 1 2.2 0
v 1 2.2 -4
v 4 2 0
v 4 2 -4
v 4 2.1 0
v 4 2.1 -4
v 4 2.2 0
v 4 2.2 -4
v 0 2 0
v 0 2.1 0
v 0 2.2 0
v 1 2.1 0
v 1 2.2 0
v 3 2.1 0
v 3 2.2 0
v 4 2 0
v 4 2.1 0
v 4 2.2 0
v 0 2 -4
v 0 2.1 -4
v 0 2.2 -4
v 1 2.1 -4
v 1 2.2 -4
v 3 2.1 -4
v 3 2.2 -4
v 4 2 -4
v 4 2.1 -4
v 4 2.2 -4
v 0 2 0
v 4 2 0
v 1.9 2 -0.5
v 2.1 2 -0.5
v 1.9 2 -1.5
v 2.1 2 -1.5
v 1.9 2 -2.5
v 2.1 2 -2.5
v 1.9 2 -3.5
v 2.1 2 -3.5
v 0 2 -4
v 4 2 -4
v 1 2.1 0
v 3 2.1 0
v 1.9 2.1 -0.5
v 2.1 2.1 -0.5
v 1.9 2.1 -1.5
v 2.1 2.1 -1.5
v 1.9 2.1 -2.5
v 2.1 2.1 -2.5
v 1.9 2.1 -3.5
v 2.1 2.1 -3.5
v 1 2.1 -4
v 3 2.1 -4
v 0 2.2 0
v 1 2.2 0
v 3 2.2 0
v 4 2.2 0
v 0 2.2 -4
v 1 2.2 -4
v 3 2.2 -4
v 4 2.2 -4

# faces
f 3/3/1 2/3/1 1/3/1
f 4/3/1 2/3/1 3/3/1
f 5/2/1 4/2/1 3/2/1
f 6/2/1 4/2/1 5/2/1
f 9/2/1 8/2/1 7/2/1
f 10/2/1 8/2/1 9/2/1
f 11/2/2 12/2/2 13/2/2
f 13/2/2 12/2/2 14/2/2
f 15/3/2 16/3/2 17/3/2
f 17/3/2 16/3/2 18/3/2
f 17/2/2 18/2/2 19/2/2
f 19/2/2 18/2/2 20/2/2
f 24/3/3 22/3/3 21/3/3
f 24/2/3 23/2/3 22/2/3
f 25/2/3 23/2/3 24/2/3
f 26/3/3 24/3/3 21/3/3
f 28/3/3 26/3/3 21/3/3
f 29/2/3 27/2/3 26/2/3
f 29/3/3 26/3/3 28/3/3
f 30/2/3 27/2/3 29/2/3
f 31/3/4 32/3/4 34/3/4
f 32/2/4 33/2/4 34/2/4
f 34/2/4 33/2/4 35/2/4
f 31/3/4 34/3/4 36/3/4
f 31/3/4 36/3/4 38/3/4
f 36/2/4 37/2/4 39/2/4
f 38/3/4 36/3/4 39/3/4
f 39/2/4 37/2/4 40/2/4
f 43/3/5 42/3/5 41/3/5
f 44/3/5 42/3/5 43/3/5
f 45/3/5 43/3/5 41/3/5
f 45/1/5 44/1/5 43/1/5
f 46/3/5 42/3/5 44/3/5
f 46/1/5 44/1/5 45/1/5
f 47/3/5 45/3/5 41/3/5
f 47/3/5 46/3/5 45/3/5
f 48/3/5 42/3/5 46/3/5
f 48/3/5 46/3/5 47/3/5
f 49/3/5 47/3/5 41/3/5
f 49/1/5 48/1/5 47/1/5
f 50/3/5 42/3/5 48/3/5
f 50/1/5 48/1/5 49/1/5
f 51/3/5 49/3/5 41/3/5
f 51/3/5 50/3/5 49/3/5
f 52/3/5 42/3/5 50/3/5
f 52/3/5 50/3/5 51/3/5
f 53/3/6 54/3/6 55/3/6
f 55/3/6 54/3/6 56/3/6
f 53/3/6 55/3/6 57/3/6
f 55/1/6 56/1/6 57/1/6
f 56/3/6 54/3/6 58/3/6
f 57/1/6 56/1/6 58/1/6
f 53/3/6 57/3/6 59/3/6
f 57/3/6 58/3/6 59/3/6
f 58/3/6 54/3/6 60/3/6
f 59/3/6 58/3/6 60/3/6
f 53/3/6 59/3/6 61/3/6
f 59/1/6 60/1/6 61/1/6
f 60/3/6 54/3/6 62/3/6
f 61/1/6 60/1/6 62/1/6
f 53/3/6 61/3/6 63/3/6
f 61/3/6 62/3/6 63/3/6
f 62/3/6 54/3/6 64/3/6
f 63/3/6 62/3/6 64/3/6
f 65/2/6 66/2/6 69/2/6
f 69/2/6 66/2/6 70/2/6
f 67/2/6 68/2/6 71/2/6
f 71/2/6 68/2/6 72/2/6
